HIERARCHY
ROOT hip
{
  OFFSET 0 0 0
  CHANNELS 6 Xposition Yposition Zposition Zrotation Yrotation Xrotation
  JOINT abdomen
  {
    OFFSET 0 20.6881 -0.73152
    CHANNELS 3 Zrotation Xrotation Yrotation
    JOINT chest
    {
      OFFSET 0 11.7043 -0.48768
      CHANNELS 3 Zrotation Xrotation Yrotation
      JOINT neck
      {
        OFFSET 0 22.1894 -2.19456
        CHANNELS 3 Zrotation Xrotation Yrotation
        JOINT head
        {
          OFFSET -0.24384 7.07133 1.2192
          CHANNELS 3 Zrotation Xrotation Yrotation
          JOINT leftEye
          {
            OFFSET 4.14528 8.04674 8.04672
            CHANNELS 3 Zrotation Xrotation Yrotation
            End Site
            {
              OFFSET 1 0 0
            }
          }
          JOINT rightEye
          {
            OFFSET -3.6576 8.04674 8.04672
            CHANNELS 3 Zrotation Xrotation Yrotation
            End Site
            {
              OFFSET 1 0 0
            }
          }
        }
      }
      JOINT rCollar
      {
        OFFSET -2.68224 19.2634 -4.8768
        CHANNELS 3 Zrotation Xrotation Yrotation
        JOINT rShldr
        {
          OFFSET -8.77824 -1.95073 1.46304
          CHANNELS 3 Zrotation Xrotation Yrotation
          JOINT rForeArm
          {
            OFFSET -28.1742 -1.7115 0.48768
            CHANNELS 3 Zrotation Xrotation Yrotation
            JOINT rHand
            {
              OFFSET -22.5879 0.773209 7.07136
              CHANNELS 3 Zrotation Xrotation Yrotation
              JOINT rThumb1
              {
                OFFSET -1.2192 -0.487915 3.41376
                CHANNELS 3 Zrotation Xrotation Yrotation
                JOINT rThumb2
                {
                  OFFSET -3.37035 -0.52449 3.41376
                  CHANNELS 3 Zrotation Xrotation Yrotation
                  End Site
                  {
                    OFFSET -1.78271 -1.18214 1.43049
                  }
                }
              }
              JOINT rIndex1
              {
                OFFSET -7.75947 0.938293 5.60832
                CHANNELS 3 Zrotation Xrotation Yrotation
                JOINT rIndex2
                {
                  OFFSET -2.54057 -0.884171 1.56538
                  CHANNELS 3 Zrotation Xrotation Yrotation
                  End Site
                  {
                    OFFSET -1.62519 -0.234802 1.16502
                  }
                }
              }
              JOINT rMid1
              {
                OFFSET -8.24714 1.18213 3.41376
                CHANNELS 3 Zrotation Xrotation Yrotation
                JOINT rMid2
                {
                  OFFSET -3.10165 -0.590103 1.0647
                  CHANNELS 3 Zrotation Xrotation Yrotation
                  End Site
                  {
                    OFFSET -2.48547 -0.328903 0.83742
                  }
                }
              }
              JOINT rRing1
              {
                OFFSET -8.82822 0.546677 1.51678
                CHANNELS 3 Zrotation Xrotation Yrotation
                JOINT rRing2
                {
                  OFFSET -2.60934 -0.819778 -0.0198488
                  CHANNELS 3 Zrotation Xrotation Yrotation
                  End Site
                  {
                    OFFSET -2.33842 -0.294052 0.168128
                  }
                }
              }
              JOINT rPinky1
              {
                OFFSET -8.27202 -0.0477905 -0.4584
                CHANNELS 3 Zrotation Xrotation Yrotation
                JOINT rPinky2
                {
                  OFFSET -1.82734 -0.647385 -0.700984
                  CHANNELS 3 Zrotation Xrotation Yrotation
                  End Site
                  {
                    OFFSET -1.69225 -0.51767 -0.607171
                  }
                }
              }
            }
          }
        }
      }
      JOINT lCollar
      {
        OFFSET 2.68224 19.2634 -4.8768
        CHANNELS 3 Zrotation Xrotation Yrotation
        JOINT lShldr
        {
          OFFSET 8.77824 -1.95073 1.46304
          CHANNELS 3 Zrotation Xrotation Yrotation
          JOINT lForeArm
          {
            OFFSET 28.1742 -1.7115 0.48768
            CHANNELS 3 Zrotation Xrotation Yrotation
            JOINT lHand
            {
              OFFSET 22.5879 0.773209 7.07136
              CHANNELS 3 Zrotation Xrotation Yrotation
              JOINT lThumb1
              {
                OFFSET 1.2192 -0.487915 3.41376
                CHANNELS 3 Zrotation Xrotation Yrotation
                JOINT lThumb2
                {
                  OFFSET 3.37035 -0.52449 3.41376
                  CHANNELS 3 Zrotation Xrotation Yrotation
                  End Site
                  {
                    OFFSET 1.78271 -1.18214 1.43049
                  }
                }
              }
              JOINT lIndex1
              {
                OFFSET 7.75947 0.938293 5.60832
                CHANNELS 3 Zrotation Xrotation Yrotation
                JOINT lIndex2
                {
                  OFFSET 2.54057 -0.884171 1.56538
                  CHANNELS 3 Zrotation Xrotation Yrotation
                  End Site
                  {
                    OFFSET 1.62519 -0.234802 1.16502
                  }
                }
              }
              JOINT lMid1
              {
                OFFSET 8.24714 1.18213 3.41376
                CHANNELS 3 Zrotation Xrotation Yrotation
                JOINT lMid2
                {
                  OFFSET 3.10165 -0.590103 1.0647
                  CHANNELS 3 Zrotation Xrotation Yrotation
                  End Site
                  {
                    OFFSET 2.48547 -0.328903 0.83742
                  }
                }
              }
              JOINT lRing1
              {
                OFFSET 8.82822 0.546677 1.51678
                CHANNELS 3 Zrotation Xrotation Yrotation
                JOINT lRing2
                {
                  OFFSET 2.60934 -0.819778 -0.0198488
                  CHANNELS 3 Zrotation Xrotation Yrotation
                  End Site
                  {
                    OFFSET 2.33842 -0.294052 0.168128
                  }
                }
              }
              JOINT lPinky1
              {
                OFFSET 8.27202 -0.0477905 -0.4584
                CHANNELS 3 Zrotation Xrotation Yrotation
                JOINT lPinky2
                {
                  OFFSET 1.82734 -0.647385 -0.700984
                  CHANNELS 3 Zrotation Xrotation Yrotation
                  End Site
                  {
                    OFFSET 1.69225 -0.51767 -0.607171
                  }
                }
              }
            }
          }
        }
      }
    }
  }
  JOINT rButtock
  {
    OFFSET -8.77824 4.35084 1.2192
    CHANNELS 3 Zrotation Xrotation Yrotation
    JOINT rThigh
    {
      OFFSET 0 -1.70687 -2.19456
      CHANNELS 3 Zrotation Xrotation Yrotation
      JOINT rShin
      {
        OFFSET 0 -36.8199 0.73152
        CHANNELS 3 Zrotation Xrotation Yrotation
        JOINT rFoot
        {
          OFFSET 0.73152 -45.1104 -5.12064
          CHANNELS 3 Zrotation Xrotation Yrotation
          End Site
          {
            OFFSET -1.1221 -3.69964 12.103
          }
        }
      }
    }
  }
  JOINT lButtock
  {
    OFFSET 8.77824 4.35084 1.2192
    CHANNELS 3 Zrotation Xrotation Yrotation
    JOINT lThigh
    {
      OFFSET 0 -1.70687 -2.19456
      CHANNELS 3 Zrotation Xrotation Yrotation
      JOINT lShin
      {
        OFFSET 0 -36.8199 0.73152
        CHANNELS 3 Zrotation Xrotation Yrotation
        JOINT lFoot
        {
          OFFSET -0.73152 -45.1104 -5.12064
          CHANNELS 3 Zrotation Xrotation Yrotation
          End Site
          {
            OFFSET 1.1221 -3.69964 12.103
          }
        }
      }
    }
  }
}
MOTION
Frames:	6
Frame Time:	0.00833333
53.3013 85.5886 143.091 0.0 0.0 0.0 2.72258 0.000518379 0.0736199 0.750831 0.0131642 0.129928 -4.25975e-14 -2.38542e-15 1.98785e-16 -1.26502e-13 3.18055e-15 6.42944e-16 -0.0 0.0 0.0 -0.0 0.0 0.0 -2.08243e-14 7.84268e-17 2.98177e-16 -4.41091e-13 1.53437e-15 1.78906e-15 -7.65952e-12 2.34029e-12 1.33583e-13 -8.74959e-11 -1.97893e-12 3.24417e-13 -2.0642e-10 7.84876e-13 1.0146e-12 -3.56483e-10 1.3581e-12 1.75805e-12 -2.06414e-10 7.85995e-13 1.00506e-12 7.73091 5.47488 0.417314 -2.06421e-10 7.84702e-13 1.01778e-12 2.90554 0.965183 0.102902 -2.06417e-10 7.84802e-13 1.01778e-12 10.2786 0.731801 0.0259123 -2.06429e-10 7.87187e-13 1.02732e-12 2.22167 -0.733487 -0.20892 -2.08225e-14 8.42505e-17 -9.93923e-17 -4.48134e-13 1.79527e-15 0.0 -7.64143e-12 -2.23076e-12 9.85972e-14 -8.75659e-11 2.61268e-12 3.56222e-13 -2.0652e-10 8.26999e-13 9.92333e-13 -3.56646e-10 1.43125e-12 1.72386e-12 -2.06523e-10 8.26149e-13 1.00824e-12 -7.73091 5.47488 -0.417314 -2.06519e-10 8.26646e-13 9.92333e-13 -2.90554 0.965183 -0.102902 -2.06526e-10 8.27044e-13 9.91538e-13 -10.2786 0.731801 -0.0259123 -2.06515e-10 8.28932e-13 9.85972e-13 -2.22167 -0.733487 0.20892 -2.03217e-16 0.0 -3.88251e-19 2.53313 -8.65197 -0.274483 0.00739411 10.0933 0.189508 -0.517055 -1.45221 0.0286328 2.03217e-16 0.0 3.88251e-19 1.60804 -1.93183 -0.00953556 0.00859829 -2.07865 0.0706246 0.45868 3.99948 -0.132448
55.1884 84.5791 135.842 -178.981 4.3665 -166.819 1.2905 -2.0904 1.39671 2.63282 1.70437 0.395518 0.130673 1.8225 0.358621 0.228549 3.29431 -0.789409 -0.0 0.0 0.0 -0.0 0.0 0.0 -1.08704e-14 -3.40596e-14 4.67602e-14 22.6125 -1.37909 -2.83545 -4.63088 -2.19273 7.13459 0.0258286 3.57147 0.498439 -4.68175e-10 2.88276e-10 1.19901e-10 -8.07855e-10 4.99303e-10 2.11098e-10 -4.6817e-10 2.88278e-10 1.19891e-10 7.73091 5.47488 0.417314 -4.68177e-10 2.88276e-10 1.19904e-10 2.90554 0.965183 0.102902 -4.68172e-10 2.88276e-10 1.19903e-10 10.2786 0.731801 0.0259123 -4.68183e-10 2.88278e-10 1.19913e-10 2.22167 -0.733487 -0.20892 -1.08949e-14 -3.40552e-14 4.64566e-14 -22.9749 3.71815 -0.440856 2.48739 -0.920242 -4.08337 -0.100803 7.0553 -0.964654 -3.14451e-10 -1.50237e-10 -2.74641e-10 -5.4822e-10 -2.60078e-10 -4.70239e-10 -3.14455e-10 -1.50238e-10 -2.74625e-10 -7.73091 5.47488 -0.417314 -3.1445e-10 -1.50238e-10 -2.74641e-10 -2.90554 0.965183 -0.102902 -3.14458e-10 -1.50238e-10 -2.74641e-10 -10.2786 0.731801 -0.0259123 -3.14446e-10 -1.50236e-10 -2.74647e-10 -2.22167 -0.733487 0.20892 -2.03217e-16 0.0 -3.88251e-19 2.66423 -11.2999 0.0460978 0.00331503 11.6453 0.220285 -0.555892 -2.79544 -0.869842 2.03217e-16 0.0 3.88251e-19 2.23134 -5.07597 -2.24729 0.0064396 -0.357911 0.0246359 0.484424 1.01787 0.385082
55.2316 84.5813 135.776 -179.0 4.2623 -166.935 -0.128085 -4.29945 2.80455 4.63122 3.49271 0.6769 0.280404 3.75891 0.738846 0.476852 6.73699 -1.61413 -0.0 0.0 0.0 -0.0 0.0 0.0 -8.51686e-16 -6.97395e-14 9.82058e-14 46.3525 -2.79849 -5.83023 -8.94898 -4.40598 14.728 -0.0149015 7.32359 1.02869 -7.53842e-10 6.17408e-10 2.4679e-10 -1.30048e-09 1.06934e-09 4.3461e-10 -7.53836e-10 6.1741e-10 2.46778e-10 7.73091 5.47488 0.417314 -7.53843e-10 6.17408e-10 2.46791e-10 2.90554 0.965183 0.102902 -7.53838e-10 6.17407e-10 2.46789e-10 10.2786 0.731801 0.0259123 -7.53848e-10 6.17409e-10 2.468e-10 2.22167 -0.733487 -0.20892 -9.06393e-16 -6.97365e-14 9.80008e-14 -47.2243 7.68571 -0.922835 4.98221 -1.88133 -8.41596 0.0585232 14.4844 -2.03115 -4.43393e-10 -3.16172e-10 -5.63022e-10 -7.76239e-10 -5.47233e-10 -9.63676e-10 -4.43398e-10 -3.16174e-10 -5.63008e-10 -7.73091 5.47488 -0.417314 -4.43392e-10 -3.16174e-10 -5.63023e-10 -2.90554 0.965183 -0.102902 -4.43401e-10 -3.16174e-10 -5.63023e-10 -10.2786 0.731801 -0.0259123 -4.43389e-10 -3.16173e-10 -5.63029e-10 -2.22167 -0.733487 0.20892 -2.03217e-16 0.0 -3.88251e-19 2.83615 -14.1039 0.395388 -0.00290892 13.2868 0.2532 -0.643518 -4.16034 -1.85203 2.03217e-16 0.0 3.88251e-19 2.62268 -8.38777 -4.6418 0.00708406 1.46236 -0.0239421 0.569935 -2.13119 0.9306
55.2598 84.5787 135.719 -179.014 4.0412 -166.918 -1.28271 -6.25845 4.06436 6.3496 5.08624 0.929834 0.323315 5.46664 1.08023 0.961378 9.87536 -2.39989 -0.0 0.0 0.0 -0.0 0.0 0.0 9.03721e-15 -1.02336e-13 1.39684e-13 67.4287 -4.09673 -8.52584 -12.2888 -6.17108 21.5189 -0.111723 10.7111 1.51888 -9.91687e-10 8.63258e-10 3.57675e-10 -1.7106e-09 1.49519e-09 6.29778e-10 -9.91681e-10 8.63261e-10 3.57662e-10 7.73091 5.47488 0.417314 -9.91688e-10 8.63259e-10 3.57675e-10 2.90554 0.965183 0.102902 -9.91682e-10 8.63258e-10 3.57672e-10 10.2786 0.731801 0.0259123 -9.91692e-10 8.6326e-10 3.57684e-10 2.22167 -0.733487 -0.20892 8.96037e-15 -1.02334e-13 1.39569e-13 -68.7502 11.1518 -1.34519 7.07162 -2.7047 -12.2624 0.453693 21.141 -3.07949 -5.30312e-10 -4.52365e-10 -8.25906e-10 -9.31369e-10 -7.83096e-10 -1.41417e-09 -5.30318e-10 -4.52367e-10 -8.25893e-10 -7.73091 5.47488 -0.417314 -5.30311e-10 -4.52368e-10 -8.25906e-10 -2.90554 0.965183 -0.102902 -5.30321e-10 -4.52368e-10 -8.25907e-10 -10.2786 0.731801 -0.0259123 -5.30309e-10 -4.52367e-10 -8.25913e-10 -2.22167 -0.733487 0.20892 -2.03217e-16 0.0 -3.88251e-19 3.0189 -16.5945 0.707814 -0.0100326 14.7493 0.283441 -0.760424 -5.47694 -2.67589 2.03217e-16 0.0 3.88251e-19 2.73011 -11.2973 -6.8293 0.0104066 3.08357 -0.0673476 0.697706 -4.94379 1.42462
55.27 84.5791 135.642 -179.076 3.9125 -166.937 -1.98486 -7.60555 4.93352 7.4013 6.19323 1.10874 0.148347 6.60346 1.32026 1.85694 12.2591 -3.06167 -0.0 0.0 0.0 -0.0 0.0 0.0 1.86015e-14 -1.27223e-13 1.56245e-13 82.1182 -5.12833 -10.4569 -14.3157 -7.21198 26.1914 -0.218254 13.1902 1.88756 -1.10998e-09 9.00908e-10 4.28551e-10 -1.91449e-09 1.56056e-09 7.54087e-10 -1.10997e-09 9.00911e-10 4.28538e-10 7.73091 5.47488 0.417314 -1.10998e-09 9.00908e-10 4.28551e-10 2.90554 0.965183 0.102902 -1.10997e-09 9.00908e-10 4.28548e-10 10.2786 0.731801 0.0259123 -1.10998e-09 9.0091e-10 4.28561e-10 2.22167 -0.733487 -0.20892 1.85228e-14 -1.27222e-13 1.56195e-13 -83.5999 13.367 -1.5948 8.42624 -3.23843 -14.8816 0.899334 25.8894 -3.91123 -5.12174e-10 -5.14203e-10 -1.02505e-09 -9.04277e-10 -8.90727e-10 -1.75728e-09 -5.12181e-10 -5.14205e-10 -1.02503e-09 -7.73091 5.47488 -0.417314 -5.12173e-10 -5.14206e-10 -1.02505e-09 -2.90554 0.965183 -0.102902 -5.12184e-10 -5.14206e-10 -1.02505e-09 -10.2786 0.731801 -0.0259123 -5.12171e-10 -5.14205e-10 -1.02505e-09 -2.22167 -0.733487 0.20892 -2.03217e-16 0.0 -3.88251e-19 3.16059 -18.3029 0.91077 -0.0157481 15.7641 0.305802 -0.861219 -6.67768 -3.09668 2.03217e-16 0.0 3.88251e-19 2.66064 -13.2626 -8.40322 0.0145704 4.20716 -0.0976942 0.818068 -6.91703 1.78272
55.2886 84.5815 135.556 -179.097 3.8984 -167.008 -2.13211 -8.0918 5.23812 7.49209 6.61964 1.18296 -0.387085 6.95119 1.4217 3.43619 13.6017 -3.54143 -0.0 0.0 0.0 -0.0 0.0 0.0 2.95763e-14 -1.48586e-13 1.35038e-13 88.0146 -5.82304 -11.3086 -14.9593 -7.50026 27.815 -0.278508 14.4114 2.07246 -1.05609e-09 5.8303e-10 4.81454e-10 -1.82089e-09 1.01041e-09 8.44852e-10 -1.05609e-09 5.83033e-10 4.81442e-10 7.73091 5.47488 0.417314 -1.05609e-09 5.83031e-10 4.81454e-10 2.90554 0.965183 0.102902 -1.05609e-09 5.83031e-10 4.81452e-10 10.2786 0.731801 0.0259123 -1.0561e-09 5.83033e-10 4.81464e-10 2.22167 -0.733487 -0.20892 2.95342e-14 -1.48584e-13 1.35027e-13 -89.1312 13.7997 -1.57837 8.86416 -3.39992 -15.7601 1.13966 28.007 -4.30959 -2.8683e-10 -4.66106e-10 -1.1964e-09 -5.19783e-10 -8.0923e-10 -2.05746e-09 -2.86837e-10 -4.66106e-10 -1.19639e-09 -7.73091 5.47488 -0.417314 -2.86828e-10 -4.66108e-10 -1.1964e-09 -2.90554 0.965183 -0.102902 -2.8684e-10 -4.66108e-10 -1.1964e-09 -10.2786 0.731801 -0.0259123 -2.86828e-10 -4.66107e-10 -1.1964e-09 -2.22167 -0.733487 0.20892 -2.03217e-16 0.0 -3.88251e-19 3.21517 -18.9058 0.949926 -0.0179353 16.1493 0.316812 -0.890821 -7.807 -2.89928 2.03217e-16 0.0 3.88251e-19 2.58706 -13.9316 -9.05141 0.0175942 4.62783 -0.109461 0.87668 -7.72039 1.94084
